<?xml version="1.0" encoding="utf-8"?>
<!-- Generator: Adobe Illustrator 16.0.4, SVG Export Plug-In . SVG Version: 6.00 Build 0)  -->
<!DOCTYPE svg PUBLIC "-//W3C//DTD SVG 1.1//EN" "http://www.w3.org/Graphics/SVG/1.1/DTD/svg11.dtd">
<svg version="1.1" id="Layer_1" xmlns="http://www.w3.org/2000/svg" xmlns:xlink="http://www.w3.org/1999/xlink" x="0px" y="0px"
	 width="67px" height="67px" viewBox="0 0 67 67" enable-background="new 0 0 67 67" xml:space="preserve">
<path fill="#FFFFFF" d="M50.837,46.137V34.425c0-6.274-3.351-9.194-7.815-9.194c-3.604,0-5.22,1.982-6.119,3.373V25.71h-6.791
	c0.09,1.917,0,20.429,0,20.429h6.791v-11.41c0-0.609,0.043-1.22,0.224-1.656c0.49-1.219,1.606-2.482,3.481-2.482
	c2.459,0,3.44,1.873,3.44,4.618v10.929H50.837z M22.959,22.922c2.367,0,3.842-1.569,3.842-3.531
	c-0.044-2.003-1.475-3.528-3.797-3.528c-2.322,0-3.841,1.525-3.841,3.528c0,1.962,1.474,3.531,3.753,3.531H22.959z M26.354,46.137
	V25.71h-6.789v20.427H26.354z M33.5,1l28.146,16.25v32.5L33.5,66L5.354,49.75v-32.5L33.5,1z"/>
</svg>
